<mxfile host="app.diagrams.net" modified="2021-06-11T14:04:01.015Z" agent="5.0 (Windows NT 10.0; Win64; x64) AppleWebKit/537.36 (KHTML, like Gecko) Chrome/91.0.4472.77 Safari/537.36" etag="wKuOtIZJfaQLc8qyziEk" version="14.7.7" type="github">
  <diagram id="R2lEEEUBdFMjLlhIrx00" name="Page-1">
    <mxGraphModel dx="2370" dy="1323" grid="0" gridSize="10" guides="1" tooltips="1" connect="1" arrows="1" fold="1" page="1" pageScale="1" pageWidth="1654" pageHeight="1169" background="#99FFFF" math="0" shadow="0" extFonts="Permanent Marker^https://fonts.googleapis.com/css?family=Permanent+Marker">
      <root>
        <mxCell id="0" />
        <mxCell id="1" parent="0" />
        <mxCell id="NtvPKGdxY3lAQxpsx7hb-1" value="PARENT" style="shape=ext;margin=3;double=1;whiteSpace=wrap;html=1;align=center;" vertex="1" parent="1">
          <mxGeometry x="143" y="206" width="100" height="40" as="geometry" />
        </mxCell>
        <mxCell id="NtvPKGdxY3lAQxpsx7hb-2" value="Name&amp;nbsp;" style="ellipse;whiteSpace=wrap;html=1;align=center;" vertex="1" parent="1">
          <mxGeometry x="183" y="146" width="80" height="20" as="geometry" />
        </mxCell>
        <mxCell id="NtvPKGdxY3lAQxpsx7hb-3" value="" style="ellipse;whiteSpace=wrap;html=1;align=center;" vertex="1" parent="1">
          <mxGeometry x="313" y="136" width="80" height="20" as="geometry" />
        </mxCell>
        <mxCell id="NtvPKGdxY3lAQxpsx7hb-4" value="Title" style="ellipse;whiteSpace=wrap;html=1;align=center;" vertex="1" parent="1">
          <mxGeometry x="163" y="106" width="70" height="20" as="geometry" />
        </mxCell>
        <mxCell id="NtvPKGdxY3lAQxpsx7hb-5" value="&lt;span style=&quot;border-bottom: 1px dotted&quot;&gt;Fname&lt;/span&gt;" style="ellipse;whiteSpace=wrap;html=1;align=center;" vertex="1" parent="1">
          <mxGeometry x="263" y="106" width="60" height="20" as="geometry" />
        </mxCell>
        <mxCell id="NtvPKGdxY3lAQxpsx7hb-6" value="" style="endArrow=none;html=1;rounded=0;entryX=0;entryY=0.5;entryDx=0;entryDy=0;exitX=1;exitY=0.5;exitDx=0;exitDy=0;" edge="1" parent="1" source="NtvPKGdxY3lAQxpsx7hb-2" target="NtvPKGdxY3lAQxpsx7hb-3">
          <mxGeometry relative="1" as="geometry">
            <mxPoint x="403" y="456" as="sourcePoint" />
            <mxPoint x="563" y="456" as="targetPoint" />
          </mxGeometry>
        </mxCell>
        <mxCell id="NtvPKGdxY3lAQxpsx7hb-7" value="" style="endArrow=none;html=1;rounded=0;entryX=0;entryY=1;entryDx=0;entryDy=0;exitX=1;exitY=0;exitDx=0;exitDy=0;" edge="1" parent="1" source="NtvPKGdxY3lAQxpsx7hb-2" target="NtvPKGdxY3lAQxpsx7hb-5">
          <mxGeometry relative="1" as="geometry">
            <mxPoint x="403" y="456" as="sourcePoint" />
            <mxPoint x="563" y="456" as="targetPoint" />
          </mxGeometry>
        </mxCell>
        <mxCell id="NtvPKGdxY3lAQxpsx7hb-8" value="" style="endArrow=none;html=1;rounded=0;entryX=0.5;entryY=1;entryDx=0;entryDy=0;exitX=0.5;exitY=0;exitDx=0;exitDy=0;" edge="1" parent="1" source="NtvPKGdxY3lAQxpsx7hb-2" target="NtvPKGdxY3lAQxpsx7hb-4">
          <mxGeometry relative="1" as="geometry">
            <mxPoint x="403" y="456" as="sourcePoint" />
            <mxPoint x="563" y="456" as="targetPoint" />
          </mxGeometry>
        </mxCell>
        <mxCell id="NtvPKGdxY3lAQxpsx7hb-9" value="" style="endArrow=none;html=1;rounded=0;entryX=0.5;entryY=1;entryDx=0;entryDy=0;exitX=0.75;exitY=0;exitDx=0;exitDy=0;" edge="1" parent="1" source="NtvPKGdxY3lAQxpsx7hb-1" target="NtvPKGdxY3lAQxpsx7hb-2">
          <mxGeometry relative="1" as="geometry">
            <mxPoint x="403" y="456" as="sourcePoint" />
            <mxPoint x="563" y="456" as="targetPoint" />
          </mxGeometry>
        </mxCell>
        <mxCell id="NtvPKGdxY3lAQxpsx7hb-10" value="Belongs_To" style="shape=rhombus;double=1;perimeter=rhombusPerimeter;whiteSpace=wrap;html=1;align=center;" vertex="1" parent="1">
          <mxGeometry x="143" y="286" width="110" height="40" as="geometry" />
        </mxCell>
        <mxCell id="NtvPKGdxY3lAQxpsx7hb-11" value="STUDENT" style="whiteSpace=wrap;html=1;align=center;" vertex="1" parent="1">
          <mxGeometry x="313" y="356" width="80" height="30" as="geometry" />
        </mxCell>
        <mxCell id="NtvPKGdxY3lAQxpsx7hb-12" value="" style="shape=link;html=1;rounded=0;exitX=0.5;exitY=1;exitDx=0;exitDy=0;entryX=0.5;entryY=0;entryDx=0;entryDy=0;" edge="1" parent="1" source="NtvPKGdxY3lAQxpsx7hb-1" target="NtvPKGdxY3lAQxpsx7hb-10">
          <mxGeometry relative="1" as="geometry">
            <mxPoint x="403" y="386" as="sourcePoint" />
            <mxPoint x="563" y="386" as="targetPoint" />
          </mxGeometry>
        </mxCell>
        <mxCell id="NtvPKGdxY3lAQxpsx7hb-13" value="" style="shape=link;html=1;rounded=0;entryX=0;entryY=0;entryDx=0;entryDy=0;" edge="1" parent="1" target="NtvPKGdxY3lAQxpsx7hb-11">
          <mxGeometry relative="1" as="geometry">
            <mxPoint x="198" y="326" as="sourcePoint" />
            <mxPoint x="563" y="386" as="targetPoint" />
          </mxGeometry>
        </mxCell>
        <mxCell id="NtvPKGdxY3lAQxpsx7hb-14" value="School" style="ellipse;whiteSpace=wrap;html=1;align=center;" vertex="1" parent="1">
          <mxGeometry x="343" y="306" width="80" height="20" as="geometry" />
        </mxCell>
        <mxCell id="NtvPKGdxY3lAQxpsx7hb-15" value="Grade" style="ellipse;whiteSpace=wrap;html=1;align=center;" vertex="1" parent="1">
          <mxGeometry x="433" y="306" width="75" height="20" as="geometry" />
        </mxCell>
        <mxCell id="NtvPKGdxY3lAQxpsx7hb-16" value="" style="endArrow=none;html=1;rounded=0;entryX=0.5;entryY=1;entryDx=0;entryDy=0;entryPerimeter=0;exitX=0.5;exitY=0;exitDx=0;exitDy=0;" edge="1" parent="1" source="NtvPKGdxY3lAQxpsx7hb-11" target="NtvPKGdxY3lAQxpsx7hb-14">
          <mxGeometry relative="1" as="geometry">
            <mxPoint x="373" y="196" as="sourcePoint" />
            <mxPoint x="533" y="196" as="targetPoint" />
          </mxGeometry>
        </mxCell>
        <mxCell id="NtvPKGdxY3lAQxpsx7hb-17" value="" style="endArrow=none;html=1;rounded=0;entryX=0.5;entryY=1;entryDx=0;entryDy=0;exitX=1;exitY=0;exitDx=0;exitDy=0;" edge="1" parent="1" source="NtvPKGdxY3lAQxpsx7hb-11" target="NtvPKGdxY3lAQxpsx7hb-15">
          <mxGeometry relative="1" as="geometry">
            <mxPoint x="373" y="196" as="sourcePoint" />
            <mxPoint x="533" y="196" as="targetPoint" />
          </mxGeometry>
        </mxCell>
        <mxCell id="NtvPKGdxY3lAQxpsx7hb-18" value="USER" style="whiteSpace=wrap;html=1;align=center;" vertex="1" parent="1">
          <mxGeometry x="633" y="166" width="100" height="40" as="geometry" />
        </mxCell>
        <mxCell id="NtvPKGdxY3lAQxpsx7hb-19" value="F_name" style="ellipse;whiteSpace=wrap;html=1;align=center;" vertex="1" parent="1">
          <mxGeometry x="413" y="186" width="90" height="20" as="geometry" />
        </mxCell>
        <mxCell id="NtvPKGdxY3lAQxpsx7hb-20" value="Name" style="ellipse;whiteSpace=wrap;html=1;align=center;" vertex="1" parent="1">
          <mxGeometry x="503" y="156" width="85" height="20" as="geometry" />
        </mxCell>
        <mxCell id="NtvPKGdxY3lAQxpsx7hb-21" value="Initial" style="ellipse;whiteSpace=wrap;html=1;align=center;" vertex="1" parent="1">
          <mxGeometry x="433" y="126" width="80" height="20" as="geometry" />
        </mxCell>
        <mxCell id="NtvPKGdxY3lAQxpsx7hb-22" value="L_name" style="ellipse;whiteSpace=wrap;html=1;align=center;" vertex="1" parent="1">
          <mxGeometry x="523" y="96" width="80" height="20" as="geometry" />
        </mxCell>
        <mxCell id="NtvPKGdxY3lAQxpsx7hb-23" value="Status" style="ellipse;whiteSpace=wrap;html=1;align=center;" vertex="1" parent="1">
          <mxGeometry x="513" y="216" width="90" height="20" as="geometry" />
        </mxCell>
        <mxCell id="NtvPKGdxY3lAQxpsx7hb-24" value="Address" style="ellipse;whiteSpace=wrap;html=1;align=center;" vertex="1" parent="1">
          <mxGeometry x="533" y="246" width="70" height="20" as="geometry" />
        </mxCell>
        <mxCell id="NtvPKGdxY3lAQxpsx7hb-25" value="Tele" style="ellipse;shape=doubleEllipse;margin=3;whiteSpace=wrap;html=1;align=center;" vertex="1" parent="1">
          <mxGeometry x="572" y="269" width="70" height="20" as="geometry" />
        </mxCell>
        <mxCell id="NtvPKGdxY3lAQxpsx7hb-26" value="Dob" style="ellipse;whiteSpace=wrap;html=1;align=center;" vertex="1" parent="1">
          <mxGeometry x="593" y="126" width="70" height="20" as="geometry" />
        </mxCell>
        <mxCell id="NtvPKGdxY3lAQxpsx7hb-27" value="Email" style="ellipse;whiteSpace=wrap;html=1;align=center;" vertex="1" parent="1">
          <mxGeometry x="648" y="96" width="70" height="20" as="geometry" />
        </mxCell>
        <mxCell id="NtvPKGdxY3lAQxpsx7hb-28" value="Joined_date" style="ellipse;whiteSpace=wrap;html=1;align=center;" vertex="1" parent="1">
          <mxGeometry x="743" y="101" width="80" height="30" as="geometry" />
        </mxCell>
        <mxCell id="NtvPKGdxY3lAQxpsx7hb-29" value="Gender" style="ellipse;whiteSpace=wrap;html=1;align=center;" vertex="1" parent="1">
          <mxGeometry x="753" y="146" width="80" height="20" as="geometry" />
        </mxCell>
        <mxCell id="NtvPKGdxY3lAQxpsx7hb-30" value="User_id" style="ellipse;whiteSpace=wrap;html=1;align=center;" vertex="1" parent="1">
          <mxGeometry x="743" y="246" width="90" height="20" as="geometry" />
        </mxCell>
        <mxCell id="NtvPKGdxY3lAQxpsx7hb-31" value="" style="endArrow=none;html=1;rounded=0;entryX=0;entryY=0.25;entryDx=0;entryDy=0;exitX=1;exitY=0.5;exitDx=0;exitDy=0;" edge="1" parent="1" source="NtvPKGdxY3lAQxpsx7hb-20" target="NtvPKGdxY3lAQxpsx7hb-18">
          <mxGeometry relative="1" as="geometry">
            <mxPoint x="403" y="246" as="sourcePoint" />
            <mxPoint x="563" y="246" as="targetPoint" />
          </mxGeometry>
        </mxCell>
        <mxCell id="NtvPKGdxY3lAQxpsx7hb-32" value="" style="endArrow=none;html=1;rounded=0;entryX=0.5;entryY=1;entryDx=0;entryDy=0;exitX=1;exitY=0.5;exitDx=0;exitDy=0;" edge="1" parent="1" source="NtvPKGdxY3lAQxpsx7hb-19" target="NtvPKGdxY3lAQxpsx7hb-20">
          <mxGeometry relative="1" as="geometry">
            <mxPoint x="403" y="246" as="sourcePoint" />
            <mxPoint x="563" y="246" as="targetPoint" />
          </mxGeometry>
        </mxCell>
        <mxCell id="NtvPKGdxY3lAQxpsx7hb-33" value="" style="endArrow=none;html=1;rounded=0;entryX=0.5;entryY=0;entryDx=0;entryDy=0;exitX=1;exitY=1;exitDx=0;exitDy=0;" edge="1" parent="1" source="NtvPKGdxY3lAQxpsx7hb-21" target="NtvPKGdxY3lAQxpsx7hb-20">
          <mxGeometry relative="1" as="geometry">
            <mxPoint x="403" y="246" as="sourcePoint" />
            <mxPoint x="563" y="246" as="targetPoint" />
          </mxGeometry>
        </mxCell>
        <mxCell id="NtvPKGdxY3lAQxpsx7hb-34" value="" style="endArrow=none;html=1;rounded=0;entryX=1;entryY=0;entryDx=0;entryDy=0;exitX=0.5;exitY=1;exitDx=0;exitDy=0;" edge="1" parent="1" source="NtvPKGdxY3lAQxpsx7hb-22" target="NtvPKGdxY3lAQxpsx7hb-20">
          <mxGeometry relative="1" as="geometry">
            <mxPoint x="403" y="246" as="sourcePoint" />
            <mxPoint x="563" y="246" as="targetPoint" />
          </mxGeometry>
        </mxCell>
        <mxCell id="NtvPKGdxY3lAQxpsx7hb-35" value="" style="endArrow=none;html=1;rounded=0;entryX=0.25;entryY=0;entryDx=0;entryDy=0;exitX=0.5;exitY=1;exitDx=0;exitDy=0;" edge="1" parent="1" source="NtvPKGdxY3lAQxpsx7hb-26" target="NtvPKGdxY3lAQxpsx7hb-18">
          <mxGeometry relative="1" as="geometry">
            <mxPoint x="403" y="246" as="sourcePoint" />
            <mxPoint x="563" y="246" as="targetPoint" />
          </mxGeometry>
        </mxCell>
        <mxCell id="NtvPKGdxY3lAQxpsx7hb-36" value="" style="endArrow=none;html=1;rounded=0;entryX=0.5;entryY=0;entryDx=0;entryDy=0;exitX=0.5;exitY=1;exitDx=0;exitDy=0;" edge="1" parent="1" source="NtvPKGdxY3lAQxpsx7hb-27" target="NtvPKGdxY3lAQxpsx7hb-18">
          <mxGeometry relative="1" as="geometry">
            <mxPoint x="403" y="246" as="sourcePoint" />
            <mxPoint x="563" y="246" as="targetPoint" />
          </mxGeometry>
        </mxCell>
        <mxCell id="NtvPKGdxY3lAQxpsx7hb-37" value="" style="endArrow=none;html=1;rounded=0;entryX=0.75;entryY=0;entryDx=0;entryDy=0;exitX=0;exitY=1;exitDx=0;exitDy=0;" edge="1" parent="1" source="NtvPKGdxY3lAQxpsx7hb-28" target="NtvPKGdxY3lAQxpsx7hb-18">
          <mxGeometry relative="1" as="geometry">
            <mxPoint x="403" y="246" as="sourcePoint" />
            <mxPoint x="563" y="246" as="targetPoint" />
          </mxGeometry>
        </mxCell>
        <mxCell id="NtvPKGdxY3lAQxpsx7hb-38" value="" style="endArrow=none;html=1;rounded=0;exitX=1;exitY=0;exitDx=0;exitDy=0;entryX=0;entryY=0.5;entryDx=0;entryDy=0;" edge="1" parent="1" source="NtvPKGdxY3lAQxpsx7hb-18" target="NtvPKGdxY3lAQxpsx7hb-29">
          <mxGeometry relative="1" as="geometry">
            <mxPoint x="403" y="246" as="sourcePoint" />
            <mxPoint x="763" y="156" as="targetPoint" />
          </mxGeometry>
        </mxCell>
        <mxCell id="NtvPKGdxY3lAQxpsx7hb-39" value="" style="endArrow=none;html=1;rounded=0;entryX=0;entryY=0.5;entryDx=0;entryDy=0;exitX=1;exitY=0;exitDx=0;exitDy=0;" edge="1" parent="1" source="NtvPKGdxY3lAQxpsx7hb-23" target="NtvPKGdxY3lAQxpsx7hb-18">
          <mxGeometry relative="1" as="geometry">
            <mxPoint x="403" y="246" as="sourcePoint" />
            <mxPoint x="563" y="246" as="targetPoint" />
          </mxGeometry>
        </mxCell>
        <mxCell id="NtvPKGdxY3lAQxpsx7hb-40" value="" style="endArrow=none;html=1;rounded=0;entryX=0.25;entryY=1;entryDx=0;entryDy=0;exitX=1;exitY=0;exitDx=0;exitDy=0;" edge="1" parent="1" source="NtvPKGdxY3lAQxpsx7hb-24" target="NtvPKGdxY3lAQxpsx7hb-18">
          <mxGeometry relative="1" as="geometry">
            <mxPoint x="403" y="246" as="sourcePoint" />
            <mxPoint x="563" y="246" as="targetPoint" />
          </mxGeometry>
        </mxCell>
        <mxCell id="NtvPKGdxY3lAQxpsx7hb-41" value="" style="endArrow=none;html=1;rounded=0;entryX=0.25;entryY=1;entryDx=0;entryDy=0;exitX=0.5;exitY=0;exitDx=0;exitDy=0;" edge="1" parent="1" source="NtvPKGdxY3lAQxpsx7hb-25" target="NtvPKGdxY3lAQxpsx7hb-18">
          <mxGeometry relative="1" as="geometry">
            <mxPoint x="403" y="246" as="sourcePoint" />
            <mxPoint x="563" y="246" as="targetPoint" />
          </mxGeometry>
        </mxCell>
        <mxCell id="NtvPKGdxY3lAQxpsx7hb-42" value="" style="endArrow=none;html=1;rounded=0;entryX=0.904;entryY=0.996;entryDx=0;entryDy=0;entryPerimeter=0;exitX=0;exitY=0;exitDx=0;exitDy=0;" edge="1" parent="1" source="NtvPKGdxY3lAQxpsx7hb-30" target="NtvPKGdxY3lAQxpsx7hb-18">
          <mxGeometry relative="1" as="geometry">
            <mxPoint x="403" y="246" as="sourcePoint" />
            <mxPoint x="563" y="246" as="targetPoint" />
          </mxGeometry>
        </mxCell>
        <mxCell id="NtvPKGdxY3lAQxpsx7hb-43" value="LOGIN" style="whiteSpace=wrap;html=1;align=center;" vertex="1" parent="1">
          <mxGeometry x="992.5" y="151" width="100" height="40" as="geometry" />
        </mxCell>
        <mxCell id="NtvPKGdxY3lAQxpsx7hb-44" value="Login_id" style="ellipse;whiteSpace=wrap;html=1;align=center;" vertex="1" parent="1">
          <mxGeometry x="863" y="101" width="81" height="20" as="geometry" />
        </mxCell>
        <mxCell id="NtvPKGdxY3lAQxpsx7hb-45" value="Password" style="ellipse;whiteSpace=wrap;html=1;align=center;" vertex="1" parent="1">
          <mxGeometry x="992.5" y="101" width="80" height="20" as="geometry" />
        </mxCell>
        <mxCell id="NtvPKGdxY3lAQxpsx7hb-46" value="User_name" style="ellipse;whiteSpace=wrap;html=1;align=center;" vertex="1" parent="1">
          <mxGeometry x="1082.5" y="101" width="90" height="20" as="geometry" />
        </mxCell>
        <mxCell id="NtvPKGdxY3lAQxpsx7hb-47" value="Privilage" style="ellipse;whiteSpace=wrap;html=1;align=center;" vertex="1" parent="1">
          <mxGeometry x="1132.5" y="151" width="85" height="20" as="geometry" />
        </mxCell>
        <mxCell id="NtvPKGdxY3lAQxpsx7hb-48" value="" style="endArrow=none;html=1;rounded=0;entryX=1;entryY=1;entryDx=0;entryDy=0;exitX=0.25;exitY=0;exitDx=0;exitDy=0;" edge="1" parent="1" source="NtvPKGdxY3lAQxpsx7hb-43" target="NtvPKGdxY3lAQxpsx7hb-44">
          <mxGeometry relative="1" as="geometry">
            <mxPoint x="402.5" y="241" as="sourcePoint" />
            <mxPoint x="943" y="116" as="targetPoint" />
          </mxGeometry>
        </mxCell>
        <mxCell id="NtvPKGdxY3lAQxpsx7hb-49" value="" style="endArrow=none;html=1;rounded=0;entryX=0.5;entryY=1;entryDx=0;entryDy=0;exitX=0.5;exitY=0;exitDx=0;exitDy=0;" edge="1" parent="1" source="NtvPKGdxY3lAQxpsx7hb-43" target="NtvPKGdxY3lAQxpsx7hb-45">
          <mxGeometry relative="1" as="geometry">
            <mxPoint x="402.5" y="241" as="sourcePoint" />
            <mxPoint x="562.5" y="241" as="targetPoint" />
          </mxGeometry>
        </mxCell>
        <mxCell id="NtvPKGdxY3lAQxpsx7hb-50" value="" style="endArrow=none;html=1;rounded=0;entryX=0;entryY=1;entryDx=0;entryDy=0;exitX=0.5;exitY=0;exitDx=0;exitDy=0;" edge="1" parent="1" source="NtvPKGdxY3lAQxpsx7hb-43" target="NtvPKGdxY3lAQxpsx7hb-46">
          <mxGeometry relative="1" as="geometry">
            <mxPoint x="402.5" y="241" as="sourcePoint" />
            <mxPoint x="562.5" y="241" as="targetPoint" />
          </mxGeometry>
        </mxCell>
        <mxCell id="NtvPKGdxY3lAQxpsx7hb-51" value="" style="endArrow=none;html=1;rounded=0;entryX=0;entryY=0.5;entryDx=0;entryDy=0;exitX=1;exitY=0;exitDx=0;exitDy=0;" edge="1" parent="1" source="NtvPKGdxY3lAQxpsx7hb-43" target="NtvPKGdxY3lAQxpsx7hb-47">
          <mxGeometry relative="1" as="geometry">
            <mxPoint x="1102.5" y="171" as="sourcePoint" />
            <mxPoint x="1132.5" y="151" as="targetPoint" />
          </mxGeometry>
        </mxCell>
        <mxCell id="NtvPKGdxY3lAQxpsx7hb-52" value="" style="shape=link;html=1;rounded=0;exitX=1;exitY=0.5;exitDx=0;exitDy=0;" edge="1" parent="1" source="NtvPKGdxY3lAQxpsx7hb-53" target="NtvPKGdxY3lAQxpsx7hb-43">
          <mxGeometry relative="1" as="geometry">
            <mxPoint x="1042.5" y="261" as="sourcePoint" />
            <mxPoint x="562.5" y="241" as="targetPoint" />
          </mxGeometry>
        </mxCell>
        <mxCell id="NtvPKGdxY3lAQxpsx7hb-53" value="Belongs_to" style="shape=rhombus;perimeter=rhombusPerimeter;whiteSpace=wrap;html=1;align=center;" vertex="1" parent="1">
          <mxGeometry x="863" y="196" width="100" height="40" as="geometry" />
        </mxCell>
        <mxCell id="NtvPKGdxY3lAQxpsx7hb-54" value="" style="endArrow=none;html=1;rounded=0;entryX=0;entryY=0.5;entryDx=0;entryDy=0;exitX=1;exitY=0.5;exitDx=0;exitDy=0;" edge="1" parent="1" source="NtvPKGdxY3lAQxpsx7hb-18" target="NtvPKGdxY3lAQxpsx7hb-53">
          <mxGeometry relative="1" as="geometry">
            <mxPoint x="403" y="386" as="sourcePoint" />
            <mxPoint x="563" y="386" as="targetPoint" />
          </mxGeometry>
        </mxCell>
        <mxCell id="NtvPKGdxY3lAQxpsx7hb-55" value="Login_name" style="ellipse;whiteSpace=wrap;html=1;align=center;" vertex="1" parent="1">
          <mxGeometry x="944" y="266" width="79" height="20" as="geometry" />
        </mxCell>
        <mxCell id="NtvPKGdxY3lAQxpsx7hb-56" value="Login_date" style="ellipse;whiteSpace=wrap;html=1;align=center;" vertex="1" parent="1">
          <mxGeometry x="893" y="296" width="90" height="20" as="geometry" />
        </mxCell>
        <mxCell id="NtvPKGdxY3lAQxpsx7hb-57" value="" style="endArrow=none;html=1;rounded=0;entryX=0.5;entryY=1;entryDx=0;entryDy=0;exitX=0;exitY=0;exitDx=0;exitDy=0;" edge="1" parent="1" source="NtvPKGdxY3lAQxpsx7hb-56" target="NtvPKGdxY3lAQxpsx7hb-53">
          <mxGeometry relative="1" as="geometry">
            <mxPoint x="403" y="386" as="sourcePoint" />
            <mxPoint x="563" y="386" as="targetPoint" />
          </mxGeometry>
        </mxCell>
        <mxCell id="NtvPKGdxY3lAQxpsx7hb-58" value="" style="endArrow=none;html=1;rounded=0;entryX=1;entryY=1;entryDx=0;entryDy=0;exitX=0.5;exitY=0;exitDx=0;exitDy=0;" edge="1" parent="1" source="NtvPKGdxY3lAQxpsx7hb-55" target="NtvPKGdxY3lAQxpsx7hb-53">
          <mxGeometry relative="1" as="geometry">
            <mxPoint x="403" y="386" as="sourcePoint" />
            <mxPoint x="563" y="386" as="targetPoint" />
          </mxGeometry>
        </mxCell>
        <mxCell id="NtvPKGdxY3lAQxpsx7hb-59" value="" style="shape=link;html=1;rounded=0;entryX=0.5;entryY=1;entryDx=0;entryDy=0;exitX=0.5;exitY=0;exitDx=0;exitDy=0;" edge="1" parent="1" source="NtvPKGdxY3lAQxpsx7hb-60" target="NtvPKGdxY3lAQxpsx7hb-18">
          <mxGeometry relative="1" as="geometry">
            <mxPoint x="683" y="356" as="sourcePoint" />
            <mxPoint x="563" y="386" as="targetPoint" />
          </mxGeometry>
        </mxCell>
        <mxCell id="NtvPKGdxY3lAQxpsx7hb-60" value="d" style="ellipse;whiteSpace=wrap;html=1;aspect=fixed;" vertex="1" parent="1">
          <mxGeometry x="668" y="356" width="30" height="30" as="geometry" />
        </mxCell>
        <mxCell id="NtvPKGdxY3lAQxpsx7hb-61" value="" style="endArrow=none;html=1;rounded=0;entryX=0;entryY=0.5;entryDx=0;entryDy=0;exitX=1;exitY=0.5;exitDx=0;exitDy=0;" edge="1" parent="1" source="NtvPKGdxY3lAQxpsx7hb-11" target="NtvPKGdxY3lAQxpsx7hb-60">
          <mxGeometry relative="1" as="geometry">
            <mxPoint x="643" y="636" as="sourcePoint" />
            <mxPoint x="803" y="636" as="targetPoint" />
          </mxGeometry>
        </mxCell>
        <mxCell id="NtvPKGdxY3lAQxpsx7hb-62" value="" style="endArrow=none;html=1;rounded=0;entryX=0;entryY=0.5;entryDx=0;entryDy=0;exitX=0.91;exitY=0.568;exitDx=0;exitDy=0;exitPerimeter=0;" edge="1" parent="1" source="NtvPKGdxY3lAQxpsx7hb-66" target="NtvPKGdxY3lAQxpsx7hb-11">
          <mxGeometry relative="1" as="geometry">
            <mxPoint x="113" y="396" as="sourcePoint" />
            <mxPoint x="803" y="636" as="targetPoint" />
          </mxGeometry>
        </mxCell>
        <mxCell id="NtvPKGdxY3lAQxpsx7hb-63" value="Date" style="ellipse;whiteSpace=wrap;html=1;align=center;" vertex="1" parent="1">
          <mxGeometry x="63" y="346" width="70" height="20" as="geometry" />
        </mxCell>
        <mxCell id="NtvPKGdxY3lAQxpsx7hb-64" value="Time" style="ellipse;whiteSpace=wrap;html=1;align=center;" vertex="1" parent="1">
          <mxGeometry x="143" y="346" width="70" height="20" as="geometry" />
        </mxCell>
        <mxCell id="NtvPKGdxY3lAQxpsx7hb-65" value="" style="endArrow=none;html=1;rounded=0;entryX=0.5;entryY=1;entryDx=0;entryDy=0;exitX=0;exitY=0;exitDx=0;exitDy=0;" edge="1" parent="1" source="NtvPKGdxY3lAQxpsx7hb-66" target="NtvPKGdxY3lAQxpsx7hb-63">
          <mxGeometry relative="1" as="geometry">
            <mxPoint x="643" y="636" as="sourcePoint" />
            <mxPoint x="803" y="636" as="targetPoint" />
          </mxGeometry>
        </mxCell>
        <mxCell id="NtvPKGdxY3lAQxpsx7hb-66" value="Maintain" style="shape=rhombus;double=1;perimeter=rhombusPerimeter;whiteSpace=wrap;html=1;align=center;" vertex="1" parent="1">
          <mxGeometry x="63" y="396" width="90" height="40" as="geometry" />
        </mxCell>
        <mxCell id="NtvPKGdxY3lAQxpsx7hb-67" value="" style="endArrow=none;html=1;rounded=0;entryX=0.5;entryY=1;entryDx=0;entryDy=0;exitX=0;exitY=0;exitDx=0;exitDy=0;" edge="1" parent="1" source="NtvPKGdxY3lAQxpsx7hb-66" target="NtvPKGdxY3lAQxpsx7hb-64">
          <mxGeometry relative="1" as="geometry">
            <mxPoint x="643" y="636" as="sourcePoint" />
            <mxPoint x="803" y="636" as="targetPoint" />
          </mxGeometry>
        </mxCell>
        <mxCell id="NtvPKGdxY3lAQxpsx7hb-68" value="" style="shape=link;html=1;rounded=0;entryX=0.5;entryY=1;entryDx=0;entryDy=0;exitX=0;exitY=0.75;exitDx=0;exitDy=0;" edge="1" parent="1" source="NtvPKGdxY3lAQxpsx7hb-70" target="NtvPKGdxY3lAQxpsx7hb-66">
          <mxGeometry relative="1" as="geometry">
            <mxPoint x="103" y="966" as="sourcePoint" />
            <mxPoint x="803" y="636" as="targetPoint" />
            <Array as="points">
              <mxPoint x="103" y="1006" />
            </Array>
          </mxGeometry>
        </mxCell>
        <mxCell id="NtvPKGdxY3lAQxpsx7hb-69" value="M" style="resizable=0;html=1;align=left;verticalAlign=bottom;" connectable="0" vertex="1" parent="NtvPKGdxY3lAQxpsx7hb-68">
          <mxGeometry x="-1" relative="1" as="geometry" />
        </mxCell>
        <mxCell id="NtvPKGdxY3lAQxpsx7hb-70" value="ATTENDANCE" style="shape=ext;margin=3;double=1;whiteSpace=wrap;html=1;align=center;" vertex="1" parent="1">
          <mxGeometry x="143" y="976" width="100" height="40" as="geometry" />
        </mxCell>
        <mxCell id="NtvPKGdxY3lAQxpsx7hb-71" value="Status" style="ellipse;whiteSpace=wrap;html=1;align=center;" vertex="1" parent="1">
          <mxGeometry x="143" y="1056" width="85" height="20" as="geometry" />
        </mxCell>
        <mxCell id="NtvPKGdxY3lAQxpsx7hb-72" value="" style="endArrow=none;html=1;rounded=0;entryX=0.5;entryY=0;entryDx=0;entryDy=0;exitX=0.5;exitY=1;exitDx=0;exitDy=0;" edge="1" parent="1" source="NtvPKGdxY3lAQxpsx7hb-70" target="NtvPKGdxY3lAQxpsx7hb-71">
          <mxGeometry relative="1" as="geometry">
            <mxPoint x="643" y="786" as="sourcePoint" />
            <mxPoint x="803" y="786" as="targetPoint" />
          </mxGeometry>
        </mxCell>
        <mxCell id="NtvPKGdxY3lAQxpsx7hb-73" value="Has" style="shape=rhombus;double=1;perimeter=rhombusPerimeter;whiteSpace=wrap;html=1;align=center;" vertex="1" parent="1">
          <mxGeometry x="283" y="976" width="80" height="40" as="geometry" />
        </mxCell>
        <mxCell id="NtvPKGdxY3lAQxpsx7hb-74" value="" style="shape=link;html=1;rounded=0;exitX=1;exitY=0.5;exitDx=0;exitDy=0;entryX=0;entryY=0.5;entryDx=0;entryDy=0;" edge="1" parent="1" source="NtvPKGdxY3lAQxpsx7hb-70" target="NtvPKGdxY3lAQxpsx7hb-73">
          <mxGeometry relative="1" as="geometry">
            <mxPoint x="643" y="786" as="sourcePoint" />
            <mxPoint x="803" y="786" as="targetPoint" />
          </mxGeometry>
        </mxCell>
        <mxCell id="NtvPKGdxY3lAQxpsx7hb-75" value="CLASS" style="whiteSpace=wrap;html=1;align=center;" vertex="1" parent="1">
          <mxGeometry x="393" y="976" width="100" height="40" as="geometry" />
        </mxCell>
        <mxCell id="NtvPKGdxY3lAQxpsx7hb-76" value="" style="shape=link;html=1;rounded=0;exitX=1;exitY=0.5;exitDx=0;exitDy=0;entryX=0;entryY=0.5;entryDx=0;entryDy=0;" edge="1" parent="1" source="NtvPKGdxY3lAQxpsx7hb-73" target="NtvPKGdxY3lAQxpsx7hb-75">
          <mxGeometry relative="1" as="geometry">
            <mxPoint x="643" y="786" as="sourcePoint" />
            <mxPoint x="803" y="786" as="targetPoint" />
          </mxGeometry>
        </mxCell>
        <mxCell id="NtvPKGdxY3lAQxpsx7hb-77" value="Room" style="ellipse;whiteSpace=wrap;html=1;align=center;" vertex="1" parent="1">
          <mxGeometry x="313" y="1056" width="70" height="20" as="geometry" />
        </mxCell>
        <mxCell id="NtvPKGdxY3lAQxpsx7hb-78" value="Name" style="ellipse;whiteSpace=wrap;html=1;align=center;" vertex="1" parent="1">
          <mxGeometry x="332" y="1096" width="81" height="20" as="geometry" />
        </mxCell>
        <mxCell id="NtvPKGdxY3lAQxpsx7hb-79" value="Time" style="ellipse;whiteSpace=wrap;html=1;align=center;" vertex="1" parent="1">
          <mxGeometry x="428" y="1066" width="80" height="20" as="geometry" />
        </mxCell>
        <mxCell id="NtvPKGdxY3lAQxpsx7hb-80" value="Start" style="ellipse;whiteSpace=wrap;html=1;align=center;" vertex="1" parent="1">
          <mxGeometry x="443" y="1106" width="70" height="20" as="geometry" />
        </mxCell>
        <mxCell id="NtvPKGdxY3lAQxpsx7hb-81" value="End" style="ellipse;whiteSpace=wrap;html=1;align=center;" vertex="1" parent="1">
          <mxGeometry x="528" y="1106" width="60" height="20" as="geometry" />
        </mxCell>
        <mxCell id="NtvPKGdxY3lAQxpsx7hb-82" value="Class_id" style="ellipse;whiteSpace=wrap;html=1;align=center;fontStyle=4;" vertex="1" parent="1">
          <mxGeometry x="567.25" y="1036" width="79.5" height="20" as="geometry" />
        </mxCell>
        <mxCell id="NtvPKGdxY3lAQxpsx7hb-83" value="Day" style="ellipse;whiteSpace=wrap;html=1;align=center;" vertex="1" parent="1">
          <mxGeometry x="533" y="1066" width="70" height="20" as="geometry" />
        </mxCell>
        <mxCell id="NtvPKGdxY3lAQxpsx7hb-84" value="" style="endArrow=none;html=1;rounded=0;entryX=0.25;entryY=1;entryDx=0;entryDy=0;exitX=0.5;exitY=0;exitDx=0;exitDy=0;" edge="1" parent="1" source="NtvPKGdxY3lAQxpsx7hb-77" target="NtvPKGdxY3lAQxpsx7hb-75">
          <mxGeometry relative="1" as="geometry">
            <mxPoint x="643" y="636" as="sourcePoint" />
            <mxPoint x="803" y="636" as="targetPoint" />
          </mxGeometry>
        </mxCell>
        <mxCell id="NtvPKGdxY3lAQxpsx7hb-85" value="" style="endArrow=none;html=1;rounded=0;exitX=0.5;exitY=0;exitDx=0;exitDy=0;entryX=0.5;entryY=1;entryDx=0;entryDy=0;" edge="1" parent="1" source="NtvPKGdxY3lAQxpsx7hb-79" target="NtvPKGdxY3lAQxpsx7hb-75">
          <mxGeometry relative="1" as="geometry">
            <mxPoint x="643" y="636" as="sourcePoint" />
            <mxPoint x="803" y="636" as="targetPoint" />
          </mxGeometry>
        </mxCell>
        <mxCell id="NtvPKGdxY3lAQxpsx7hb-86" value="" style="endArrow=none;html=1;rounded=0;exitX=0.5;exitY=0;exitDx=0;exitDy=0;entryX=0.25;entryY=1;entryDx=0;entryDy=0;" edge="1" parent="1" source="NtvPKGdxY3lAQxpsx7hb-78" target="NtvPKGdxY3lAQxpsx7hb-75">
          <mxGeometry relative="1" as="geometry">
            <mxPoint x="643" y="636" as="sourcePoint" />
            <mxPoint x="803" y="636" as="targetPoint" />
          </mxGeometry>
        </mxCell>
        <mxCell id="NtvPKGdxY3lAQxpsx7hb-87" value="" style="endArrow=none;html=1;rounded=0;entryX=0.5;entryY=0;entryDx=0;entryDy=0;exitX=0.5;exitY=1;exitDx=0;exitDy=0;" edge="1" parent="1" source="NtvPKGdxY3lAQxpsx7hb-79" target="NtvPKGdxY3lAQxpsx7hb-80">
          <mxGeometry relative="1" as="geometry">
            <mxPoint x="643" y="636" as="sourcePoint" />
            <mxPoint x="803" y="636" as="targetPoint" />
          </mxGeometry>
        </mxCell>
        <mxCell id="NtvPKGdxY3lAQxpsx7hb-88" value="" style="endArrow=none;html=1;rounded=0;entryX=0.5;entryY=0;entryDx=0;entryDy=0;exitX=0.5;exitY=1;exitDx=0;exitDy=0;" edge="1" parent="1" source="NtvPKGdxY3lAQxpsx7hb-79" target="NtvPKGdxY3lAQxpsx7hb-81">
          <mxGeometry relative="1" as="geometry">
            <mxPoint x="643" y="636" as="sourcePoint" />
            <mxPoint x="803" y="636" as="targetPoint" />
          </mxGeometry>
        </mxCell>
        <mxCell id="NtvPKGdxY3lAQxpsx7hb-89" value="" style="endArrow=none;html=1;rounded=0;entryX=0;entryY=0;entryDx=0;entryDy=0;exitX=0.5;exitY=1;exitDx=0;exitDy=0;" edge="1" parent="1" source="NtvPKGdxY3lAQxpsx7hb-75" target="NtvPKGdxY3lAQxpsx7hb-83">
          <mxGeometry relative="1" as="geometry">
            <mxPoint x="643" y="636" as="sourcePoint" />
            <mxPoint x="803" y="636" as="targetPoint" />
          </mxGeometry>
        </mxCell>
        <mxCell id="NtvPKGdxY3lAQxpsx7hb-90" value="" style="endArrow=none;html=1;rounded=0;entryX=0;entryY=0;entryDx=0;entryDy=0;exitX=1;exitY=1;exitDx=0;exitDy=0;" edge="1" parent="1" source="NtvPKGdxY3lAQxpsx7hb-75" target="NtvPKGdxY3lAQxpsx7hb-82">
          <mxGeometry relative="1" as="geometry">
            <mxPoint x="643" y="636" as="sourcePoint" />
            <mxPoint x="803" y="636" as="targetPoint" />
          </mxGeometry>
        </mxCell>
        <mxCell id="NtvPKGdxY3lAQxpsx7hb-91" value="" style="shape=link;html=1;rounded=0;entryX=0.25;entryY=1;entryDx=0;entryDy=0;exitX=0.5;exitY=0;exitDx=0;exitDy=0;" edge="1" parent="1" source="NtvPKGdxY3lAQxpsx7hb-92" target="NtvPKGdxY3lAQxpsx7hb-11">
          <mxGeometry relative="1" as="geometry">
            <mxPoint x="333" y="606" as="sourcePoint" />
            <mxPoint x="803" y="636" as="targetPoint" />
          </mxGeometry>
        </mxCell>
        <mxCell id="NtvPKGdxY3lAQxpsx7hb-92" value="Participate" style="shape=rhombus;perimeter=rhombusPerimeter;whiteSpace=wrap;html=1;align=center;" vertex="1" parent="1">
          <mxGeometry x="228" y="606" width="80" height="50" as="geometry" />
        </mxCell>
        <mxCell id="NtvPKGdxY3lAQxpsx7hb-93" value="" style="shape=link;html=1;rounded=0;entryX=0.5;entryY=0;entryDx=0;entryDy=0;exitX=0.5;exitY=1;exitDx=0;exitDy=0;" edge="1" parent="1" source="NtvPKGdxY3lAQxpsx7hb-92" target="NtvPKGdxY3lAQxpsx7hb-75">
          <mxGeometry relative="1" as="geometry">
            <mxPoint x="643" y="636" as="sourcePoint" />
            <mxPoint x="803" y="636" as="targetPoint" />
          </mxGeometry>
        </mxCell>
        <mxCell id="NtvPKGdxY3lAQxpsx7hb-94" value="Pay" style="shape=rhombus;double=1;perimeter=rhombusPerimeter;whiteSpace=wrap;html=1;align=center;" vertex="1" parent="1">
          <mxGeometry x="448" y="566" width="90" height="40" as="geometry" />
        </mxCell>
        <mxCell id="NtvPKGdxY3lAQxpsx7hb-95" value="FEE" style="shape=ext;margin=3;double=1;whiteSpace=wrap;html=1;align=center;" vertex="1" parent="1">
          <mxGeometry x="480.5" y="686" width="80" height="30" as="geometry" />
        </mxCell>
        <mxCell id="NtvPKGdxY3lAQxpsx7hb-96" value="Has" style="shape=rhombus;double=1;perimeter=rhombusPerimeter;whiteSpace=wrap;html=1;align=center;" vertex="1" parent="1">
          <mxGeometry x="433" y="856" width="100" height="40" as="geometry" />
        </mxCell>
        <mxCell id="NtvPKGdxY3lAQxpsx7hb-97" value="" style="endArrow=none;html=1;rounded=0;entryX=0.75;entryY=1;entryDx=0;entryDy=0;exitX=0.5;exitY=0;exitDx=0;exitDy=0;" edge="1" parent="1" source="NtvPKGdxY3lAQxpsx7hb-94" target="NtvPKGdxY3lAQxpsx7hb-11">
          <mxGeometry relative="1" as="geometry">
            <mxPoint x="643" y="636" as="sourcePoint" />
            <mxPoint x="803" y="636" as="targetPoint" />
          </mxGeometry>
        </mxCell>
        <mxCell id="NtvPKGdxY3lAQxpsx7hb-98" value="Paid_month" style="ellipse;whiteSpace=wrap;html=1;align=center;" vertex="1" parent="1">
          <mxGeometry x="363" y="556" width="70" height="30" as="geometry" />
        </mxCell>
        <mxCell id="NtvPKGdxY3lAQxpsx7hb-99" value="Paid_fee" style="ellipse;whiteSpace=wrap;html=1;align=center;" vertex="1" parent="1">
          <mxGeometry x="363" y="596" width="75" height="20" as="geometry" />
        </mxCell>
        <mxCell id="NtvPKGdxY3lAQxpsx7hb-100" value="" style="endArrow=none;html=1;rounded=0;entryX=0;entryY=0;entryDx=0;entryDy=0;exitX=1;exitY=0.5;exitDx=0;exitDy=0;" edge="1" parent="1" source="NtvPKGdxY3lAQxpsx7hb-98" target="NtvPKGdxY3lAQxpsx7hb-94">
          <mxGeometry relative="1" as="geometry">
            <mxPoint x="648" y="746" as="sourcePoint" />
            <mxPoint x="808" y="746" as="targetPoint" />
          </mxGeometry>
        </mxCell>
        <mxCell id="NtvPKGdxY3lAQxpsx7hb-101" value="" style="endArrow=none;html=1;rounded=0;entryX=0;entryY=0.5;entryDx=0;entryDy=0;exitX=1;exitY=0;exitDx=0;exitDy=0;" edge="1" parent="1" source="NtvPKGdxY3lAQxpsx7hb-99" target="NtvPKGdxY3lAQxpsx7hb-94">
          <mxGeometry relative="1" as="geometry">
            <mxPoint x="648" y="746" as="sourcePoint" />
            <mxPoint x="808" y="746" as="targetPoint" />
          </mxGeometry>
        </mxCell>
        <mxCell id="NtvPKGdxY3lAQxpsx7hb-102" value="Date" style="ellipse;whiteSpace=wrap;html=1;align=center;" vertex="1" parent="1">
          <mxGeometry x="378" y="626" width="70" height="20" as="geometry" />
        </mxCell>
        <mxCell id="NtvPKGdxY3lAQxpsx7hb-103" value="" style="endArrow=none;html=1;rounded=0;entryX=0;entryY=0.5;entryDx=0;entryDy=0;exitX=1;exitY=0;exitDx=0;exitDy=0;" edge="1" parent="1" source="NtvPKGdxY3lAQxpsx7hb-102" target="NtvPKGdxY3lAQxpsx7hb-94">
          <mxGeometry relative="1" as="geometry">
            <mxPoint x="648" y="746" as="sourcePoint" />
            <mxPoint x="808" y="746" as="targetPoint" />
          </mxGeometry>
        </mxCell>
        <mxCell id="NtvPKGdxY3lAQxpsx7hb-104" value="" style="shape=link;html=1;rounded=0;entryX=0.5;entryY=1;entryDx=0;entryDy=0;exitX=0.5;exitY=0;exitDx=0;exitDy=0;" edge="1" parent="1" source="NtvPKGdxY3lAQxpsx7hb-95" target="NtvPKGdxY3lAQxpsx7hb-94">
          <mxGeometry relative="1" as="geometry">
            <mxPoint x="643" y="636" as="sourcePoint" />
            <mxPoint x="803" y="636" as="targetPoint" />
          </mxGeometry>
        </mxCell>
        <mxCell id="NtvPKGdxY3lAQxpsx7hb-105" value="Month" style="ellipse;whiteSpace=wrap;html=1;align=center;" vertex="1" parent="1">
          <mxGeometry x="383" y="726" width="80" height="20" as="geometry" />
        </mxCell>
        <mxCell id="NtvPKGdxY3lAQxpsx7hb-106" value="Amount" style="ellipse;whiteSpace=wrap;html=1;align=center;" vertex="1" parent="1">
          <mxGeometry x="405.5" y="766" width="75" height="20" as="geometry" />
        </mxCell>
        <mxCell id="NtvPKGdxY3lAQxpsx7hb-107" value="Status" style="ellipse;whiteSpace=wrap;html=1;align=center;" vertex="1" parent="1">
          <mxGeometry x="373" y="686" width="70" height="20" as="geometry" />
        </mxCell>
        <mxCell id="NtvPKGdxY3lAQxpsx7hb-108" value="" style="endArrow=none;html=1;rounded=0;entryX=0;entryY=0;entryDx=0;entryDy=0;exitX=1;exitY=0.5;exitDx=0;exitDy=0;" edge="1" parent="1" source="NtvPKGdxY3lAQxpsx7hb-107" target="NtvPKGdxY3lAQxpsx7hb-95">
          <mxGeometry relative="1" as="geometry">
            <mxPoint x="643" y="636" as="sourcePoint" />
            <mxPoint x="803" y="636" as="targetPoint" />
          </mxGeometry>
        </mxCell>
        <mxCell id="NtvPKGdxY3lAQxpsx7hb-109" value="" style="endArrow=none;html=1;rounded=0;entryX=0;entryY=0.75;entryDx=0;entryDy=0;exitX=1;exitY=0;exitDx=0;exitDy=0;" edge="1" parent="1" source="NtvPKGdxY3lAQxpsx7hb-105" target="NtvPKGdxY3lAQxpsx7hb-95">
          <mxGeometry relative="1" as="geometry">
            <mxPoint x="643" y="636" as="sourcePoint" />
            <mxPoint x="803" y="636" as="targetPoint" />
          </mxGeometry>
        </mxCell>
        <mxCell id="NtvPKGdxY3lAQxpsx7hb-110" value="" style="endArrow=none;html=1;rounded=0;entryX=0.25;entryY=1;entryDx=0;entryDy=0;exitX=1;exitY=0;exitDx=0;exitDy=0;" edge="1" parent="1" source="NtvPKGdxY3lAQxpsx7hb-106" target="NtvPKGdxY3lAQxpsx7hb-95">
          <mxGeometry relative="1" as="geometry">
            <mxPoint x="463" y="636" as="sourcePoint" />
            <mxPoint x="803" y="636" as="targetPoint" />
          </mxGeometry>
        </mxCell>
        <mxCell id="NtvPKGdxY3lAQxpsx7hb-111" value="" style="shape=link;html=1;rounded=0;entryX=0.5;entryY=1;entryDx=0;entryDy=0;exitX=0.5;exitY=0;exitDx=0;exitDy=0;" edge="1" parent="1" source="NtvPKGdxY3lAQxpsx7hb-96" target="NtvPKGdxY3lAQxpsx7hb-95">
          <mxGeometry relative="1" as="geometry">
            <mxPoint x="643" y="636" as="sourcePoint" />
            <mxPoint x="803" y="636" as="targetPoint" />
          </mxGeometry>
        </mxCell>
        <mxCell id="NtvPKGdxY3lAQxpsx7hb-112" value="" style="endArrow=none;html=1;rounded=0;entryX=0.75;entryY=0;entryDx=0;entryDy=0;exitX=0.5;exitY=1;exitDx=0;exitDy=0;" edge="1" parent="1" source="NtvPKGdxY3lAQxpsx7hb-96" target="NtvPKGdxY3lAQxpsx7hb-75">
          <mxGeometry relative="1" as="geometry">
            <mxPoint x="643" y="636" as="sourcePoint" />
            <mxPoint x="803" y="636" as="targetPoint" />
          </mxGeometry>
        </mxCell>
        <mxCell id="NtvPKGdxY3lAQxpsx7hb-113" value="Register" style="shape=rhombus;double=1;perimeter=rhombusPerimeter;whiteSpace=wrap;html=1;align=center;" vertex="1" parent="1">
          <mxGeometry x="533" y="406" width="95.75" height="40" as="geometry" />
        </mxCell>
        <mxCell id="NtvPKGdxY3lAQxpsx7hb-114" value="ADMITION" style="shape=ext;margin=3;double=1;whiteSpace=wrap;html=1;align=center;" vertex="1" parent="1">
          <mxGeometry x="493" y="466" width="80" height="40" as="geometry" />
        </mxCell>
        <mxCell id="NtvPKGdxY3lAQxpsx7hb-115" value="" style="endArrow=none;html=1;rounded=0;entryX=1;entryY=0.75;entryDx=0;entryDy=0;exitX=0.5;exitY=0;exitDx=0;exitDy=0;" edge="1" parent="1" source="NtvPKGdxY3lAQxpsx7hb-113" target="NtvPKGdxY3lAQxpsx7hb-11">
          <mxGeometry relative="1" as="geometry">
            <mxPoint x="643" y="636" as="sourcePoint" />
            <mxPoint x="803" y="636" as="targetPoint" />
          </mxGeometry>
        </mxCell>
        <mxCell id="NtvPKGdxY3lAQxpsx7hb-116" value="Date" style="ellipse;whiteSpace=wrap;html=1;align=center;" vertex="1" parent="1">
          <mxGeometry x="453" y="406" width="70" height="20" as="geometry" />
        </mxCell>
        <mxCell id="NtvPKGdxY3lAQxpsx7hb-117" value="" style="endArrow=none;html=1;rounded=0;entryX=1;entryY=0.5;entryDx=0;entryDy=0;exitX=0;exitY=0.5;exitDx=0;exitDy=0;" edge="1" parent="1" source="NtvPKGdxY3lAQxpsx7hb-113" target="NtvPKGdxY3lAQxpsx7hb-116">
          <mxGeometry relative="1" as="geometry">
            <mxPoint x="643" y="636" as="sourcePoint" />
            <mxPoint x="803" y="636" as="targetPoint" />
          </mxGeometry>
        </mxCell>
        <mxCell id="NtvPKGdxY3lAQxpsx7hb-118" value="Fee" style="ellipse;whiteSpace=wrap;html=1;align=center;" vertex="1" parent="1">
          <mxGeometry x="560.5" y="521" width="80" height="30" as="geometry" />
        </mxCell>
        <mxCell id="NtvPKGdxY3lAQxpsx7hb-119" value="" style="endArrow=none;html=1;rounded=0;entryX=0.5;entryY=1;entryDx=0;entryDy=0;exitX=0;exitY=0;exitDx=0;exitDy=0;" edge="1" parent="1" source="NtvPKGdxY3lAQxpsx7hb-118" target="NtvPKGdxY3lAQxpsx7hb-114">
          <mxGeometry relative="1" as="geometry">
            <mxPoint x="643" y="636" as="sourcePoint" />
            <mxPoint x="803" y="636" as="targetPoint" />
          </mxGeometry>
        </mxCell>
        <mxCell id="NtvPKGdxY3lAQxpsx7hb-120" value="" style="shape=link;html=1;rounded=0;entryX=0.5;entryY=1;entryDx=0;entryDy=0;exitX=0.5;exitY=0;exitDx=0;exitDy=0;" edge="1" parent="1" source="NtvPKGdxY3lAQxpsx7hb-114" target="NtvPKGdxY3lAQxpsx7hb-113">
          <mxGeometry relative="1" as="geometry">
            <mxPoint x="643" y="636" as="sourcePoint" />
            <mxPoint x="803" y="636" as="targetPoint" />
          </mxGeometry>
        </mxCell>
        <mxCell id="NtvPKGdxY3lAQxpsx7hb-121" value="STAFF" style="whiteSpace=wrap;html=1;align=center;" vertex="1" parent="1">
          <mxGeometry x="718" y="456" width="100" height="40" as="geometry" />
        </mxCell>
        <mxCell id="NtvPKGdxY3lAQxpsx7hb-122" value="SUBJECT" style="whiteSpace=wrap;html=1;align=center;" vertex="1" parent="1">
          <mxGeometry x="793" y="1016" width="100" height="40" as="geometry" />
        </mxCell>
        <mxCell id="NtvPKGdxY3lAQxpsx7hb-123" value="Belongs_to" style="shape=rhombus;perimeter=rhombusPerimeter;whiteSpace=wrap;html=1;align=center;" vertex="1" parent="1">
          <mxGeometry x="618" y="986" width="100" height="40" as="geometry" />
        </mxCell>
        <mxCell id="NtvPKGdxY3lAQxpsx7hb-124" value="" style="shape=link;html=1;rounded=0;entryX=0;entryY=0.5;entryDx=0;entryDy=0;exitX=1;exitY=0.5;exitDx=0;exitDy=0;" edge="1" parent="1" source="NtvPKGdxY3lAQxpsx7hb-75" target="NtvPKGdxY3lAQxpsx7hb-123">
          <mxGeometry relative="1" as="geometry">
            <mxPoint x="643" y="786" as="sourcePoint" />
            <mxPoint x="803" y="786" as="targetPoint" />
          </mxGeometry>
        </mxCell>
        <mxCell id="NtvPKGdxY3lAQxpsx7hb-125" value="" style="shape=link;html=1;rounded=0;entryX=0;entryY=0.25;entryDx=0;entryDy=0;exitX=1;exitY=0.5;exitDx=0;exitDy=0;" edge="1" parent="1" source="NtvPKGdxY3lAQxpsx7hb-123" target="NtvPKGdxY3lAQxpsx7hb-122">
          <mxGeometry relative="1" as="geometry">
            <mxPoint x="643" y="786" as="sourcePoint" />
            <mxPoint x="803" y="786" as="targetPoint" />
          </mxGeometry>
        </mxCell>
        <mxCell id="NtvPKGdxY3lAQxpsx7hb-126" value="Has" style="shape=rhombus;perimeter=rhombusPerimeter;whiteSpace=wrap;html=1;align=center;" vertex="1" parent="1">
          <mxGeometry x="953" y="1016" width="80" height="40" as="geometry" />
        </mxCell>
        <mxCell id="NtvPKGdxY3lAQxpsx7hb-127" value="Subject_name" style="ellipse;whiteSpace=wrap;html=1;align=center;" vertex="1" parent="1">
          <mxGeometry x="718" y="1076" width="85" height="30" as="geometry" />
        </mxCell>
        <mxCell id="NtvPKGdxY3lAQxpsx7hb-128" value="Subject_id" style="ellipse;whiteSpace=wrap;html=1;align=center;fontStyle=4;" vertex="1" parent="1">
          <mxGeometry x="823" y="1091" width="90" height="30" as="geometry" />
        </mxCell>
        <mxCell id="NtvPKGdxY3lAQxpsx7hb-129" value="" style="endArrow=none;html=1;rounded=0;entryX=0.25;entryY=1;entryDx=0;entryDy=0;exitX=0.5;exitY=0;exitDx=0;exitDy=0;" edge="1" parent="1" source="NtvPKGdxY3lAQxpsx7hb-127" target="NtvPKGdxY3lAQxpsx7hb-122">
          <mxGeometry relative="1" as="geometry">
            <mxPoint x="643" y="786" as="sourcePoint" />
            <mxPoint x="803" y="786" as="targetPoint" />
          </mxGeometry>
        </mxCell>
        <mxCell id="NtvPKGdxY3lAQxpsx7hb-130" value="" style="endArrow=none;html=1;rounded=0;entryX=0.75;entryY=1;entryDx=0;entryDy=0;exitX=0.5;exitY=0;exitDx=0;exitDy=0;" edge="1" parent="1" source="NtvPKGdxY3lAQxpsx7hb-128" target="NtvPKGdxY3lAQxpsx7hb-122">
          <mxGeometry relative="1" as="geometry">
            <mxPoint x="643" y="786" as="sourcePoint" />
            <mxPoint x="803" y="786" as="targetPoint" />
          </mxGeometry>
        </mxCell>
        <mxCell id="NtvPKGdxY3lAQxpsx7hb-131" value="CATEGORY" style="whiteSpace=wrap;html=1;align=center;" vertex="1" parent="1">
          <mxGeometry x="1092.5" y="1016" width="100" height="40" as="geometry" />
        </mxCell>
        <mxCell id="NtvPKGdxY3lAQxpsx7hb-132" value="" style="shape=link;html=1;rounded=0;entryX=0;entryY=0.5;entryDx=0;entryDy=0;exitX=1;exitY=0.5;exitDx=0;exitDy=0;" edge="1" parent="1" source="NtvPKGdxY3lAQxpsx7hb-122" target="NtvPKGdxY3lAQxpsx7hb-126">
          <mxGeometry relative="1" as="geometry">
            <mxPoint x="643" y="786" as="sourcePoint" />
            <mxPoint x="803" y="786" as="targetPoint" />
          </mxGeometry>
        </mxCell>
        <mxCell id="NtvPKGdxY3lAQxpsx7hb-133" value="" style="endArrow=none;html=1;rounded=0;entryX=0;entryY=0.5;entryDx=0;entryDy=0;exitX=1;exitY=0.5;exitDx=0;exitDy=0;" edge="1" parent="1" source="NtvPKGdxY3lAQxpsx7hb-126" target="NtvPKGdxY3lAQxpsx7hb-131">
          <mxGeometry relative="1" as="geometry">
            <mxPoint x="643" y="786" as="sourcePoint" />
            <mxPoint x="803" y="786" as="targetPoint" />
          </mxGeometry>
        </mxCell>
        <mxCell id="NtvPKGdxY3lAQxpsx7hb-134" value="Id" style="ellipse;whiteSpace=wrap;html=1;align=center;fontStyle=4;" vertex="1" parent="1">
          <mxGeometry x="1042.5" y="1076" width="90" height="31" as="geometry" />
        </mxCell>
        <mxCell id="NtvPKGdxY3lAQxpsx7hb-135" value="Name" style="ellipse;whiteSpace=wrap;html=1;align=center;" vertex="1" parent="1">
          <mxGeometry x="1137.5" y="1077" width="80" height="30" as="geometry" />
        </mxCell>
        <mxCell id="NtvPKGdxY3lAQxpsx7hb-136" value="" style="endArrow=none;html=1;rounded=0;entryX=0.25;entryY=1;entryDx=0;entryDy=0;exitX=0.5;exitY=0;exitDx=0;exitDy=0;" edge="1" parent="1" source="NtvPKGdxY3lAQxpsx7hb-134" target="NtvPKGdxY3lAQxpsx7hb-131">
          <mxGeometry relative="1" as="geometry">
            <mxPoint x="643" y="786" as="sourcePoint" />
            <mxPoint x="803" y="786" as="targetPoint" />
          </mxGeometry>
        </mxCell>
        <mxCell id="NtvPKGdxY3lAQxpsx7hb-137" value="" style="endArrow=none;html=1;rounded=0;entryX=0.5;entryY=1;entryDx=0;entryDy=0;exitX=0.5;exitY=0;exitDx=0;exitDy=0;" edge="1" parent="1" source="NtvPKGdxY3lAQxpsx7hb-135" target="NtvPKGdxY3lAQxpsx7hb-131">
          <mxGeometry relative="1" as="geometry">
            <mxPoint x="643" y="786" as="sourcePoint" />
            <mxPoint x="803" y="786" as="targetPoint" />
          </mxGeometry>
        </mxCell>
        <mxCell id="NtvPKGdxY3lAQxpsx7hb-138" value="" style="endArrow=none;html=1;rounded=0;entryX=0;entryY=0.5;entryDx=0;entryDy=0;exitX=1;exitY=0.5;exitDx=0;exitDy=0;" edge="1" parent="1" source="NtvPKGdxY3lAQxpsx7hb-113" target="NtvPKGdxY3lAQxpsx7hb-121">
          <mxGeometry relative="1" as="geometry">
            <mxPoint x="643" y="786" as="sourcePoint" />
            <mxPoint x="803" y="786" as="targetPoint" />
          </mxGeometry>
        </mxCell>
        <mxCell id="NtvPKGdxY3lAQxpsx7hb-139" value="" style="endArrow=none;html=1;rounded=0;entryX=0;entryY=1;entryDx=0;entryDy=0;exitX=1;exitY=0.5;exitDx=0;exitDy=0;" edge="1" parent="1" source="NtvPKGdxY3lAQxpsx7hb-94" target="NtvPKGdxY3lAQxpsx7hb-121">
          <mxGeometry relative="1" as="geometry">
            <mxPoint x="643" y="786" as="sourcePoint" />
            <mxPoint x="803" y="786" as="targetPoint" />
            <Array as="points">
              <mxPoint x="673" y="556" />
            </Array>
          </mxGeometry>
        </mxCell>
        <mxCell id="NtvPKGdxY3lAQxpsx7hb-140" value="" style="endArrow=none;html=1;rounded=0;entryX=1;entryY=1;entryDx=0;entryDy=0;exitX=0.25;exitY=0;exitDx=0;exitDy=0;" edge="1" parent="1" source="NtvPKGdxY3lAQxpsx7hb-121" target="NtvPKGdxY3lAQxpsx7hb-60">
          <mxGeometry relative="1" as="geometry">
            <mxPoint x="643" y="786" as="sourcePoint" />
            <mxPoint x="803" y="786" as="targetPoint" />
          </mxGeometry>
        </mxCell>
        <mxCell id="NtvPKGdxY3lAQxpsx7hb-141" value="Title" style="ellipse;whiteSpace=wrap;html=1;align=center;" vertex="1" parent="1">
          <mxGeometry x="753" y="406" width="70" height="20" as="geometry" />
        </mxCell>
        <mxCell id="NtvPKGdxY3lAQxpsx7hb-142" value="" style="endArrow=none;html=1;rounded=0;entryX=0.5;entryY=1;entryDx=0;entryDy=0;exitX=0.5;exitY=0;exitDx=0;exitDy=0;" edge="1" parent="1" source="NtvPKGdxY3lAQxpsx7hb-121" target="NtvPKGdxY3lAQxpsx7hb-141">
          <mxGeometry relative="1" as="geometry">
            <mxPoint x="643" y="786" as="sourcePoint" />
            <mxPoint x="803" y="786" as="targetPoint" />
          </mxGeometry>
        </mxCell>
        <mxCell id="NtvPKGdxY3lAQxpsx7hb-143" value="TEACHER" style="whiteSpace=wrap;html=1;align=center;" vertex="1" parent="1">
          <mxGeometry x="1423" y="386" width="100" height="40" as="geometry" />
        </mxCell>
        <mxCell id="NtvPKGdxY3lAQxpsx7hb-144" value="" style="endArrow=none;html=1;rounded=0;entryX=0.5;entryY=0;entryDx=0;entryDy=0;exitX=1;exitY=0;exitDx=0;exitDy=0;" edge="1" parent="1" source="NtvPKGdxY3lAQxpsx7hb-60" target="NtvPKGdxY3lAQxpsx7hb-143">
          <mxGeometry relative="1" as="geometry">
            <mxPoint x="643" y="786" as="sourcePoint" />
            <mxPoint x="803" y="786" as="targetPoint" />
          </mxGeometry>
        </mxCell>
        <mxCell id="NtvPKGdxY3lAQxpsx7hb-145" value="Title" style="ellipse;whiteSpace=wrap;html=1;align=center;" vertex="1" parent="1">
          <mxGeometry x="1413" y="341" width="80" height="20" as="geometry" />
        </mxCell>
        <mxCell id="NtvPKGdxY3lAQxpsx7hb-146" value="Qualification" style="ellipse;whiteSpace=wrap;html=1;align=center;" vertex="1" parent="1">
          <mxGeometry x="1523" y="341" width="90" height="30" as="geometry" />
        </mxCell>
        <mxCell id="NtvPKGdxY3lAQxpsx7hb-147" value="" style="endArrow=none;html=1;rounded=0;entryX=0.5;entryY=1;entryDx=0;entryDy=0;exitX=0.5;exitY=0;exitDx=0;exitDy=0;" edge="1" parent="1" source="NtvPKGdxY3lAQxpsx7hb-143" target="NtvPKGdxY3lAQxpsx7hb-145">
          <mxGeometry relative="1" as="geometry">
            <mxPoint x="903" y="766" as="sourcePoint" />
            <mxPoint x="1063" y="766" as="targetPoint" />
          </mxGeometry>
        </mxCell>
        <mxCell id="NtvPKGdxY3lAQxpsx7hb-148" value="" style="endArrow=none;html=1;rounded=0;entryX=0.37;entryY=0.971;entryDx=0;entryDy=0;entryPerimeter=0;exitX=0.75;exitY=0;exitDx=0;exitDy=0;" edge="1" parent="1" source="NtvPKGdxY3lAQxpsx7hb-143" target="NtvPKGdxY3lAQxpsx7hb-146">
          <mxGeometry relative="1" as="geometry">
            <mxPoint x="903" y="766" as="sourcePoint" />
            <mxPoint x="1063" y="766" as="targetPoint" />
          </mxGeometry>
        </mxCell>
        <mxCell id="NtvPKGdxY3lAQxpsx7hb-149" value="" style="shape=link;html=1;rounded=0;entryX=0.75;entryY=1;entryDx=0;entryDy=0;exitX=0.5;exitY=0;exitDx=0;exitDy=0;" edge="1" parent="1" source="NtvPKGdxY3lAQxpsx7hb-123" target="NtvPKGdxY3lAQxpsx7hb-143">
          <mxGeometry relative="1" as="geometry">
            <mxPoint x="643" y="786" as="sourcePoint" />
            <mxPoint x="803" y="786" as="targetPoint" />
            <Array as="points">
              <mxPoint x="1503" y="966" />
            </Array>
          </mxGeometry>
        </mxCell>
        <mxCell id="NtvPKGdxY3lAQxpsx7hb-150" value="Assign" style="shape=rhombus;double=1;perimeter=rhombusPerimeter;whiteSpace=wrap;html=1;align=center;" vertex="1" parent="1">
          <mxGeometry x="633" y="916" width="90" height="40" as="geometry" />
        </mxCell>
        <mxCell id="NtvPKGdxY3lAQxpsx7hb-151" value="CLASS_FEE" style="shape=ext;margin=3;double=1;whiteSpace=wrap;html=1;align=center;" vertex="1" parent="1">
          <mxGeometry x="835" y="916" width="90" height="30" as="geometry" />
        </mxCell>
        <mxCell id="NtvPKGdxY3lAQxpsx7hb-152" value="" style="shape=link;html=1;rounded=0;entryX=0;entryY=0.5;entryDx=0;entryDy=0;exitX=1;exitY=0;exitDx=0;exitDy=0;" edge="1" parent="1" source="NtvPKGdxY3lAQxpsx7hb-75" target="NtvPKGdxY3lAQxpsx7hb-150">
          <mxGeometry relative="1" as="geometry">
            <mxPoint x="643" y="786" as="sourcePoint" />
            <mxPoint x="803" y="786" as="targetPoint" />
          </mxGeometry>
        </mxCell>
        <mxCell id="NtvPKGdxY3lAQxpsx7hb-153" value="" style="shape=link;html=1;rounded=0;entryX=0;entryY=0.5;entryDx=0;entryDy=0;exitX=1;exitY=0.5;exitDx=0;exitDy=0;" edge="1" parent="1" source="NtvPKGdxY3lAQxpsx7hb-150" target="NtvPKGdxY3lAQxpsx7hb-151">
          <mxGeometry relative="1" as="geometry">
            <mxPoint x="643" y="786" as="sourcePoint" />
            <mxPoint x="803" y="786" as="targetPoint" />
          </mxGeometry>
        </mxCell>
        <mxCell id="NtvPKGdxY3lAQxpsx7hb-154" value="Amount" style="ellipse;whiteSpace=wrap;html=1;align=center;" vertex="1" parent="1">
          <mxGeometry x="963" y="921" width="80" height="30" as="geometry" />
        </mxCell>
        <mxCell id="NtvPKGdxY3lAQxpsx7hb-155" value="" style="endArrow=none;html=1;rounded=0;entryX=0;entryY=0.5;entryDx=0;entryDy=0;exitX=1;exitY=0.5;exitDx=0;exitDy=0;" edge="1" parent="1" source="NtvPKGdxY3lAQxpsx7hb-151" target="NtvPKGdxY3lAQxpsx7hb-154">
          <mxGeometry relative="1" as="geometry">
            <mxPoint x="643" y="786" as="sourcePoint" />
            <mxPoint x="803" y="786" as="targetPoint" />
          </mxGeometry>
        </mxCell>
        <mxCell id="NtvPKGdxY3lAQxpsx7hb-156" value="" style="endArrow=none;html=1;rounded=0;exitX=0.5;exitY=0;exitDx=0;exitDy=0;entryX=0.5;entryY=1;entryDx=0;entryDy=0;" edge="1" parent="1" source="NtvPKGdxY3lAQxpsx7hb-150" target="NtvPKGdxY3lAQxpsx7hb-143">
          <mxGeometry relative="1" as="geometry">
            <mxPoint x="643" y="786" as="sourcePoint" />
            <mxPoint x="803" y="786" as="targetPoint" />
            <Array as="points">
              <mxPoint x="1463" y="876" />
            </Array>
          </mxGeometry>
        </mxCell>
        <mxCell id="NtvPKGdxY3lAQxpsx7hb-157" value="Get" style="shape=rhombus;perimeter=rhombusPerimeter;whiteSpace=wrap;html=1;align=center;" vertex="1" parent="1">
          <mxGeometry x="718" y="611" width="100" height="50" as="geometry" />
        </mxCell>
        <mxCell id="NtvPKGdxY3lAQxpsx7hb-158" value="ADVANCE" style="whiteSpace=wrap;html=1;align=center;" vertex="1" parent="1">
          <mxGeometry x="723" y="716" width="100" height="40" as="geometry" />
        </mxCell>
        <mxCell id="NtvPKGdxY3lAQxpsx7hb-159" value="" style="endArrow=none;html=1;rounded=0;entryX=0.25;entryY=1;entryDx=0;entryDy=0;exitX=0;exitY=0;exitDx=0;exitDy=0;" edge="1" parent="1" source="NtvPKGdxY3lAQxpsx7hb-157" target="NtvPKGdxY3lAQxpsx7hb-121">
          <mxGeometry relative="1" as="geometry">
            <mxPoint x="643" y="786" as="sourcePoint" />
            <mxPoint x="803" y="786" as="targetPoint" />
          </mxGeometry>
        </mxCell>
        <mxCell id="NtvPKGdxY3lAQxpsx7hb-160" value="getting" style="edgeLabel;html=1;align=center;verticalAlign=middle;resizable=0;points=[];rotation=-90;" vertex="1" connectable="0" parent="NtvPKGdxY3lAQxpsx7hb-159">
          <mxGeometry x="-0.2303" y="4" relative="1" as="geometry">
            <mxPoint x="-5" as="offset" />
          </mxGeometry>
        </mxCell>
        <mxCell id="NtvPKGdxY3lAQxpsx7hb-161" value="" style="endArrow=none;html=1;rounded=0;entryX=0.75;entryY=1;entryDx=0;entryDy=0;exitX=1;exitY=0;exitDx=0;exitDy=0;" edge="1" parent="1" source="NtvPKGdxY3lAQxpsx7hb-157" target="NtvPKGdxY3lAQxpsx7hb-121">
          <mxGeometry relative="1" as="geometry">
            <mxPoint x="643" y="786" as="sourcePoint" />
            <mxPoint x="803" y="786" as="targetPoint" />
            <Array as="points">
              <mxPoint x="793" y="566" />
            </Array>
          </mxGeometry>
        </mxCell>
        <mxCell id="NtvPKGdxY3lAQxpsx7hb-162" value="handling" style="edgeLabel;html=1;align=center;verticalAlign=middle;resizable=0;points=[];rotation=90;" vertex="1" connectable="0" parent="NtvPKGdxY3lAQxpsx7hb-161">
          <mxGeometry x="0.1507" y="-2" relative="1" as="geometry">
            <mxPoint x="9" as="offset" />
          </mxGeometry>
        </mxCell>
        <mxCell id="NtvPKGdxY3lAQxpsx7hb-163" value="" style="shape=link;html=1;rounded=0;entryX=0.5;entryY=1;entryDx=0;entryDy=0;exitX=0.404;exitY=-0.039;exitDx=0;exitDy=0;exitPerimeter=0;" edge="1" parent="1" source="NtvPKGdxY3lAQxpsx7hb-158" target="NtvPKGdxY3lAQxpsx7hb-157">
          <mxGeometry relative="1" as="geometry">
            <mxPoint x="628.75" y="836" as="sourcePoint" />
            <mxPoint x="788.75" y="836" as="targetPoint" />
          </mxGeometry>
        </mxCell>
        <mxCell id="NtvPKGdxY3lAQxpsx7hb-164" value="" style="endArrow=none;html=1;rounded=0;entryX=0;entryY=1;entryDx=0;entryDy=0;exitX=1;exitY=0.5;exitDx=0;exitDy=0;" edge="1" parent="1" source="NtvPKGdxY3lAQxpsx7hb-157" target="NtvPKGdxY3lAQxpsx7hb-143">
          <mxGeometry relative="1" as="geometry">
            <mxPoint x="623" y="776" as="sourcePoint" />
            <mxPoint x="783" y="776" as="targetPoint" />
            <Array as="points">
              <mxPoint x="1423" y="636" />
            </Array>
          </mxGeometry>
        </mxCell>
        <mxCell id="NtvPKGdxY3lAQxpsx7hb-165" value="Amount" style="ellipse;whiteSpace=wrap;html=1;align=center;" vertex="1" parent="1">
          <mxGeometry x="648" y="796" width="85" height="30" as="geometry" />
        </mxCell>
        <mxCell id="NtvPKGdxY3lAQxpsx7hb-166" value="Advance_id" style="ellipse;whiteSpace=wrap;html=1;align=center;fontStyle=4;" vertex="1" parent="1">
          <mxGeometry x="745" y="796" width="90" height="30" as="geometry" />
        </mxCell>
        <mxCell id="NtvPKGdxY3lAQxpsx7hb-167" value="Description" style="ellipse;whiteSpace=wrap;html=1;align=center;" vertex="1" parent="1">
          <mxGeometry x="845" y="801" width="80" height="20" as="geometry" />
        </mxCell>
        <mxCell id="NtvPKGdxY3lAQxpsx7hb-168" value="" style="endArrow=none;html=1;rounded=0;entryX=0.25;entryY=1;entryDx=0;entryDy=0;exitX=0.5;exitY=0;exitDx=0;exitDy=0;" edge="1" parent="1" source="NtvPKGdxY3lAQxpsx7hb-165" target="NtvPKGdxY3lAQxpsx7hb-158">
          <mxGeometry relative="1" as="geometry">
            <mxPoint x="623" y="776" as="sourcePoint" />
            <mxPoint x="783" y="776" as="targetPoint" />
          </mxGeometry>
        </mxCell>
        <mxCell id="NtvPKGdxY3lAQxpsx7hb-169" value="" style="endArrow=none;html=1;rounded=0;entryX=0.5;entryY=1;entryDx=0;entryDy=0;exitX=0.5;exitY=0;exitDx=0;exitDy=0;" edge="1" parent="1" source="NtvPKGdxY3lAQxpsx7hb-166" target="NtvPKGdxY3lAQxpsx7hb-158">
          <mxGeometry relative="1" as="geometry">
            <mxPoint x="623" y="776" as="sourcePoint" />
            <mxPoint x="783" y="776" as="targetPoint" />
          </mxGeometry>
        </mxCell>
        <mxCell id="NtvPKGdxY3lAQxpsx7hb-170" value="" style="endArrow=none;html=1;rounded=0;entryX=0.75;entryY=1;entryDx=0;entryDy=0;exitX=0;exitY=0;exitDx=0;exitDy=0;" edge="1" parent="1" source="NtvPKGdxY3lAQxpsx7hb-167" target="NtvPKGdxY3lAQxpsx7hb-158">
          <mxGeometry relative="1" as="geometry">
            <mxPoint x="623" y="776" as="sourcePoint" />
            <mxPoint x="783" y="776" as="targetPoint" />
          </mxGeometry>
        </mxCell>
        <mxCell id="NtvPKGdxY3lAQxpsx7hb-171" value="Maintain" style="shape=rhombus;perimeter=rhombusPerimeter;whiteSpace=wrap;html=1;align=center;" vertex="1" parent="1">
          <mxGeometry x="863" y="451" width="110" height="50" as="geometry" />
        </mxCell>
        <mxCell id="NtvPKGdxY3lAQxpsx7hb-172" value="Date" style="ellipse;whiteSpace=wrap;html=1;align=center;" vertex="1" parent="1">
          <mxGeometry x="868" y="526" width="75" height="20" as="geometry" />
        </mxCell>
        <mxCell id="NtvPKGdxY3lAQxpsx7hb-173" value="EXPENDITURE" style="whiteSpace=wrap;html=1;align=center;" vertex="1" parent="1">
          <mxGeometry x="1053" y="456" width="100" height="40" as="geometry" />
        </mxCell>
        <mxCell id="NtvPKGdxY3lAQxpsx7hb-174" value="Expense" style="ellipse;whiteSpace=wrap;html=1;align=center;" vertex="1" parent="1">
          <mxGeometry x="1023" y="546" width="80" height="20" as="geometry" />
        </mxCell>
        <mxCell id="NtvPKGdxY3lAQxpsx7hb-175" value="Amount" style="ellipse;whiteSpace=wrap;html=1;align=center;" vertex="1" parent="1">
          <mxGeometry x="1132.5" y="551" width="80" height="20" as="geometry" />
        </mxCell>
        <mxCell id="NtvPKGdxY3lAQxpsx7hb-176" value="Expen_id" style="ellipse;whiteSpace=wrap;html=1;align=center;fontStyle=4;" vertex="1" parent="1">
          <mxGeometry x="1203" y="501" width="100" height="40" as="geometry" />
        </mxCell>
        <mxCell id="NtvPKGdxY3lAQxpsx7hb-177" value="" style="endArrow=none;html=1;rounded=0;entryX=0.25;entryY=1;entryDx=0;entryDy=0;exitX=0.5;exitY=0;exitDx=0;exitDy=0;" edge="1" parent="1" source="NtvPKGdxY3lAQxpsx7hb-174" target="NtvPKGdxY3lAQxpsx7hb-173">
          <mxGeometry relative="1" as="geometry">
            <mxPoint x="623" y="776" as="sourcePoint" />
            <mxPoint x="783" y="776" as="targetPoint" />
          </mxGeometry>
        </mxCell>
        <mxCell id="NtvPKGdxY3lAQxpsx7hb-178" value="" style="endArrow=none;html=1;rounded=0;entryX=0.75;entryY=1;entryDx=0;entryDy=0;exitX=0.279;exitY=0.1;exitDx=0;exitDy=0;exitPerimeter=0;" edge="1" parent="1" source="NtvPKGdxY3lAQxpsx7hb-175" target="NtvPKGdxY3lAQxpsx7hb-173">
          <mxGeometry relative="1" as="geometry">
            <mxPoint x="1173" y="556" as="sourcePoint" />
            <mxPoint x="783" y="776" as="targetPoint" />
          </mxGeometry>
        </mxCell>
        <mxCell id="NtvPKGdxY3lAQxpsx7hb-179" value="" style="endArrow=none;html=1;rounded=0;entryX=1;entryY=1;entryDx=0;entryDy=0;exitX=0;exitY=0.5;exitDx=0;exitDy=0;" edge="1" parent="1" source="NtvPKGdxY3lAQxpsx7hb-176" target="NtvPKGdxY3lAQxpsx7hb-173">
          <mxGeometry relative="1" as="geometry">
            <mxPoint x="623" y="776" as="sourcePoint" />
            <mxPoint x="783" y="776" as="targetPoint" />
          </mxGeometry>
        </mxCell>
        <mxCell id="NtvPKGdxY3lAQxpsx7hb-180" value="" style="endArrow=none;html=1;rounded=0;entryX=0;entryY=0.5;entryDx=0;entryDy=0;exitX=1;exitY=0.5;exitDx=0;exitDy=0;" edge="1" parent="1" source="NtvPKGdxY3lAQxpsx7hb-121" target="NtvPKGdxY3lAQxpsx7hb-171">
          <mxGeometry relative="1" as="geometry">
            <mxPoint x="623" y="776" as="sourcePoint" />
            <mxPoint x="783" y="776" as="targetPoint" />
          </mxGeometry>
        </mxCell>
        <mxCell id="NtvPKGdxY3lAQxpsx7hb-181" value="" style="shape=link;html=1;rounded=0;entryX=0;entryY=0.5;entryDx=0;entryDy=0;exitX=1;exitY=0.5;exitDx=0;exitDy=0;" edge="1" parent="1" source="NtvPKGdxY3lAQxpsx7hb-171" target="NtvPKGdxY3lAQxpsx7hb-173">
          <mxGeometry relative="1" as="geometry">
            <mxPoint x="943" y="775.29" as="sourcePoint" />
            <mxPoint x="1103" y="775.29" as="targetPoint" />
          </mxGeometry>
        </mxCell>
        <mxCell id="NtvPKGdxY3lAQxpsx7hb-182" value="Date" style="ellipse;whiteSpace=wrap;html=1;align=center;" vertex="1" parent="1">
          <mxGeometry x="613" y="636" width="80" height="30" as="geometry" />
        </mxCell>
        <mxCell id="NtvPKGdxY3lAQxpsx7hb-183" value="" style="endArrow=none;html=1;rounded=0;entryX=0;entryY=0.5;entryDx=0;entryDy=0;exitX=1;exitY=0;exitDx=0;exitDy=0;" edge="1" parent="1" source="NtvPKGdxY3lAQxpsx7hb-182" target="NtvPKGdxY3lAQxpsx7hb-157">
          <mxGeometry relative="1" as="geometry">
            <mxPoint x="623" y="776" as="sourcePoint" />
            <mxPoint x="783" y="776" as="targetPoint" />
          </mxGeometry>
        </mxCell>
      </root>
    </mxGraphModel>
  </diagram>
</mxfile>
